<mxfile host="app.diagrams.net" agent="Mozilla/5.0 (Windows NT 10.0; Win64; x64) AppleWebKit/537.36 (KHTML, like Gecko) Chrome/133.0.0.0 Safari/537.36 OPR/118.0.0.0" version="27.0.5">
  <diagram name="Página-1" id="F1L5mhBczCCxvURdVGtR">
    <mxGraphModel dx="1240" dy="580" grid="1" gridSize="10" guides="1" tooltips="1" connect="1" arrows="1" fold="1" page="1" pageScale="1" pageWidth="827" pageHeight="1169" math="0" shadow="0">
      <root>
        <mxCell id="0" />
        <mxCell id="1" parent="0" />
        <mxCell id="2" value="Inicio" style="whiteSpace=wrap;strokeWidth=2;" parent="1" vertex="1">
          <mxGeometry x="1174" y="8" width="99" height="54" as="geometry" />
        </mxCell>
        <mxCell id="3" value="Agregar nuevo material a la biblioteca" style="whiteSpace=wrap;strokeWidth=2;" parent="1" vertex="1">
          <mxGeometry x="318" y="112" width="260" height="78" as="geometry" />
        </mxCell>
        <mxCell id="4" value="¿Qué tipo de material?" style="rhombus;strokeWidth=2;whiteSpace=wrap;" parent="1" vertex="1">
          <mxGeometry x="340" y="240" width="215" height="215" as="geometry" />
        </mxCell>
        <mxCell id="5" value="Ingresar descripción y precio" style="whiteSpace=wrap;strokeWidth=2;" parent="1" vertex="1">
          <mxGeometry x="8" y="528" width="260" height="78" as="geometry" />
        </mxCell>
        <mxCell id="6" value="Incluir número de páginas" style="whiteSpace=wrap;strokeWidth=2;" parent="1" vertex="1">
          <mxGeometry x="15" y="699" width="245" height="54" as="geometry" />
        </mxCell>
        <mxCell id="7" value="Guardar libro en la base de datos" style="whiteSpace=wrap;strokeWidth=2;" parent="1" vertex="1">
          <mxGeometry x="8" y="868" width="260" height="78" as="geometry" />
        </mxCell>
        <mxCell id="8" value="Ingresar descripción y precio" style="whiteSpace=wrap;strokeWidth=2;" parent="1" vertex="1">
          <mxGeometry x="318" y="528" width="260" height="78" as="geometry" />
        </mxCell>
        <mxCell id="9" value="Incluir período de publicación" style="whiteSpace=wrap;strokeWidth=2;" parent="1" vertex="1">
          <mxGeometry x="318" y="687" width="260" height="78" as="geometry" />
        </mxCell>
        <mxCell id="10" value="Guardar revista en la base de datos" style="whiteSpace=wrap;strokeWidth=2;" parent="1" vertex="1">
          <mxGeometry x="318" y="868" width="260" height="78" as="geometry" />
        </mxCell>
        <mxCell id="11" value="Ingresar descripción y precio" style="whiteSpace=wrap;strokeWidth=2;" parent="1" vertex="1">
          <mxGeometry x="628" y="528" width="260" height="78" as="geometry" />
        </mxCell>
        <mxCell id="12" value="Incluir duración" style="whiteSpace=wrap;strokeWidth=2;" parent="1" vertex="1">
          <mxGeometry x="672" y="699" width="172" height="54" as="geometry" />
        </mxCell>
        <mxCell id="13" value="Guardar DVD en la base de datos" style="whiteSpace=wrap;strokeWidth=2;" parent="1" vertex="1">
          <mxGeometry x="628" y="868" width="260" height="78" as="geometry" />
        </mxCell>
        <mxCell id="14" value="Fin del proceso de agregar libro" style="whiteSpace=wrap;strokeWidth=2;" parent="1" vertex="1">
          <mxGeometry x="8" y="996" width="260" height="78" as="geometry" />
        </mxCell>
        <mxCell id="15" value="Fin del proceso de agregar revista" style="whiteSpace=wrap;strokeWidth=2;" parent="1" vertex="1">
          <mxGeometry x="318" y="996" width="260" height="78" as="geometry" />
        </mxCell>
        <mxCell id="16" value="Fin del proceso de agregar DVD" style="whiteSpace=wrap;strokeWidth=2;" parent="1" vertex="1">
          <mxGeometry x="628" y="996" width="260" height="78" as="geometry" />
        </mxCell>
        <mxCell id="17" value="Prestar material" style="whiteSpace=wrap;strokeWidth=2;" parent="1" vertex="1">
          <mxGeometry x="1755" y="124" width="176" height="54" as="geometry" />
        </mxCell>
        <mxCell id="18" value="¿Qué tipo de material?" style="rhombus;strokeWidth=2;whiteSpace=wrap;" parent="1" vertex="1">
          <mxGeometry x="1735" y="240" width="215" height="215" as="geometry" />
        </mxCell>
        <mxCell id="19" value="Verificar disponibilidad del libro" style="whiteSpace=wrap;strokeWidth=2;" parent="1" vertex="1">
          <mxGeometry x="1093" y="528" width="260" height="78" as="geometry" />
        </mxCell>
        <mxCell id="20" value="Verificar disponibilidad de la revista" style="whiteSpace=wrap;strokeWidth=2;" parent="1" vertex="1">
          <mxGeometry x="1713" y="528" width="260" height="78" as="geometry" />
        </mxCell>
        <mxCell id="21" value="Verificar disponibilidad del DVD" style="whiteSpace=wrap;strokeWidth=2;" parent="1" vertex="1">
          <mxGeometry x="2330" y="528" width="260" height="78" as="geometry" />
        </mxCell>
        <mxCell id="22" value="¿Disponible?" style="rhombus;strokeWidth=2;whiteSpace=wrap;" parent="1" vertex="1">
          <mxGeometry x="1153" y="656" width="140" height="140" as="geometry" />
        </mxCell>
        <mxCell id="23" value="¿Disponible?" style="rhombus;strokeWidth=2;whiteSpace=wrap;" parent="1" vertex="1">
          <mxGeometry x="1773" y="656" width="140" height="140" as="geometry" />
        </mxCell>
        <mxCell id="24" value="¿Disponible?" style="rhombus;strokeWidth=2;whiteSpace=wrap;" parent="1" vertex="1">
          <mxGeometry x="2390" y="656" width="140" height="140" as="geometry" />
        </mxCell>
        <mxCell id="25" value="Registrar préstamo del libro" style="whiteSpace=wrap;strokeWidth=2;" parent="1" vertex="1">
          <mxGeometry x="938" y="868" width="260" height="78" as="geometry" />
        </mxCell>
        <mxCell id="26" value="Notificar que el libro no está disponible" style="whiteSpace=wrap;strokeWidth=2;" parent="1" vertex="1">
          <mxGeometry x="1248" y="868" width="260" height="78" as="geometry" />
        </mxCell>
        <mxCell id="27" value="Registrar préstamo de la revista" style="whiteSpace=wrap;strokeWidth=2;" parent="1" vertex="1">
          <mxGeometry x="1558" y="868" width="260" height="78" as="geometry" />
        </mxCell>
        <mxCell id="28" value="Notificar que la revista no está disponible" style="whiteSpace=wrap;strokeWidth=2;" parent="1" vertex="1">
          <mxGeometry x="1868" y="868" width="260" height="78" as="geometry" />
        </mxCell>
        <mxCell id="29" value="Registrar préstamo del DVD" style="whiteSpace=wrap;strokeWidth=2;" parent="1" vertex="1">
          <mxGeometry x="2178" y="880" width="256" height="54" as="geometry" />
        </mxCell>
        <mxCell id="30" value="Notificar que el DVD no está disponible" style="whiteSpace=wrap;strokeWidth=2;" parent="1" vertex="1">
          <mxGeometry x="2484" y="868" width="260" height="78" as="geometry" />
        </mxCell>
        <mxCell id="31" value="Fin del proceso de préstamo" style="whiteSpace=wrap;strokeWidth=2;" parent="1" vertex="1">
          <mxGeometry x="1713" y="996" width="260" height="78" as="geometry" />
        </mxCell>
        <mxCell id="32" value="" style="curved=1;startArrow=none;endArrow=block;exitX=0;exitY=0.56;entryX=0.5;entryY=0;" parent="1" source="2" target="3" edge="1">
          <mxGeometry relative="1" as="geometry">
            <Array as="points">
              <mxPoint x="448" y="87" />
            </Array>
          </mxGeometry>
        </mxCell>
        <mxCell id="33" value="" style="curved=1;startArrow=none;endArrow=block;exitX=0.5;exitY=1;entryX=0.5;entryY=0;" parent="1" source="3" target="4" edge="1">
          <mxGeometry relative="1" as="geometry">
            <Array as="points" />
          </mxGeometry>
        </mxCell>
        <mxCell id="34" value="Libro" style="curved=1;startArrow=none;endArrow=block;exitX=0;exitY=0.73;entryX=0.5;entryY=0;" parent="1" source="4" target="5" edge="1">
          <mxGeometry relative="1" as="geometry">
            <Array as="points">
              <mxPoint x="138" y="491" />
            </Array>
          </mxGeometry>
        </mxCell>
        <mxCell id="35" value="" style="curved=1;startArrow=none;endArrow=block;exitX=0.5;exitY=1;entryX=0.5;entryY=-0.01;" parent="1" source="5" target="6" edge="1">
          <mxGeometry relative="1" as="geometry">
            <Array as="points" />
          </mxGeometry>
        </mxCell>
        <mxCell id="36" value="" style="curved=1;startArrow=none;endArrow=block;exitX=0.5;exitY=0.99;entryX=0.5;entryY=0;" parent="1" source="6" target="7" edge="1">
          <mxGeometry relative="1" as="geometry">
            <Array as="points" />
          </mxGeometry>
        </mxCell>
        <mxCell id="37" value="Revista" style="curved=1;startArrow=none;endArrow=block;exitX=0.5;exitY=1;entryX=0.5;entryY=0;" parent="1" source="4" target="8" edge="1">
          <mxGeometry relative="1" as="geometry">
            <Array as="points" />
          </mxGeometry>
        </mxCell>
        <mxCell id="38" value="" style="curved=1;startArrow=none;endArrow=block;exitX=0.5;exitY=1;entryX=0.5;entryY=-0.01;" parent="1" source="8" target="9" edge="1">
          <mxGeometry relative="1" as="geometry">
            <Array as="points" />
          </mxGeometry>
        </mxCell>
        <mxCell id="39" value="" style="curved=1;startArrow=none;endArrow=block;exitX=0.5;exitY=0.99;entryX=0.5;entryY=0;" parent="1" source="9" target="10" edge="1">
          <mxGeometry relative="1" as="geometry">
            <Array as="points" />
          </mxGeometry>
        </mxCell>
        <mxCell id="40" value="DVD" style="curved=1;startArrow=none;endArrow=block;exitX=1;exitY=0.73;entryX=0.5;entryY=0;" parent="1" source="4" target="11" edge="1">
          <mxGeometry relative="1" as="geometry">
            <Array as="points">
              <mxPoint x="758" y="491" />
            </Array>
          </mxGeometry>
        </mxCell>
        <mxCell id="41" value="" style="curved=1;startArrow=none;endArrow=block;exitX=0.5;exitY=1;entryX=0.5;entryY=-0.01;" parent="1" source="11" target="12" edge="1">
          <mxGeometry relative="1" as="geometry">
            <Array as="points" />
          </mxGeometry>
        </mxCell>
        <mxCell id="42" value="" style="curved=1;startArrow=none;endArrow=block;exitX=0.5;exitY=0.99;entryX=0.5;entryY=0;" parent="1" source="12" target="13" edge="1">
          <mxGeometry relative="1" as="geometry">
            <Array as="points" />
          </mxGeometry>
        </mxCell>
        <mxCell id="43" value="" style="curved=1;startArrow=none;endArrow=block;exitX=0.5;exitY=1;entryX=0.5;entryY=0;" parent="1" source="7" target="14" edge="1">
          <mxGeometry relative="1" as="geometry">
            <Array as="points" />
          </mxGeometry>
        </mxCell>
        <mxCell id="44" value="" style="curved=1;startArrow=none;endArrow=block;exitX=0.5;exitY=1;entryX=0.5;entryY=0;" parent="1" source="10" target="15" edge="1">
          <mxGeometry relative="1" as="geometry">
            <Array as="points" />
          </mxGeometry>
        </mxCell>
        <mxCell id="45" value="" style="curved=1;startArrow=none;endArrow=block;exitX=0.5;exitY=1;entryX=0.5;entryY=0;" parent="1" source="13" target="16" edge="1">
          <mxGeometry relative="1" as="geometry">
            <Array as="points" />
          </mxGeometry>
        </mxCell>
        <mxCell id="46" value="" style="curved=1;startArrow=none;endArrow=block;exitX=0.99;exitY=0.58;entryX=0.5;entryY=0;" parent="1" source="2" target="17" edge="1">
          <mxGeometry relative="1" as="geometry">
            <Array as="points">
              <mxPoint x="1843" y="87" />
            </Array>
          </mxGeometry>
        </mxCell>
        <mxCell id="47" value="" style="curved=1;startArrow=none;endArrow=block;exitX=0.5;exitY=1;entryX=0.5;entryY=0;" parent="1" source="17" target="18" edge="1">
          <mxGeometry relative="1" as="geometry">
            <Array as="points" />
          </mxGeometry>
        </mxCell>
        <mxCell id="48" value="Libro" style="curved=1;startArrow=none;endArrow=block;exitX=0;exitY=0.62;entryX=0.5;entryY=0;" parent="1" source="18" target="19" edge="1">
          <mxGeometry relative="1" as="geometry">
            <Array as="points">
              <mxPoint x="1223" y="491" />
            </Array>
          </mxGeometry>
        </mxCell>
        <mxCell id="49" value="Revista" style="curved=1;startArrow=none;endArrow=block;exitX=0.5;exitY=1;entryX=0.5;entryY=0;" parent="1" source="18" target="20" edge="1">
          <mxGeometry relative="1" as="geometry">
            <Array as="points" />
          </mxGeometry>
        </mxCell>
        <mxCell id="50" value="DVD" style="curved=1;startArrow=none;endArrow=block;exitX=1;exitY=0.62;entryX=0.5;entryY=0;" parent="1" source="18" target="21" edge="1">
          <mxGeometry relative="1" as="geometry">
            <Array as="points">
              <mxPoint x="2460" y="491" />
            </Array>
          </mxGeometry>
        </mxCell>
        <mxCell id="51" value="" style="curved=1;startArrow=none;endArrow=block;exitX=0.5;exitY=1;entryX=0.5;entryY=0;" parent="1" source="19" target="22" edge="1">
          <mxGeometry relative="1" as="geometry">
            <Array as="points" />
          </mxGeometry>
        </mxCell>
        <mxCell id="52" value="" style="curved=1;startArrow=none;endArrow=block;exitX=0.5;exitY=1;entryX=0.5;entryY=0;" parent="1" source="20" target="23" edge="1">
          <mxGeometry relative="1" as="geometry">
            <Array as="points" />
          </mxGeometry>
        </mxCell>
        <mxCell id="53" value="" style="curved=1;startArrow=none;endArrow=block;exitX=0.5;exitY=1;entryX=0.5;entryY=0;" parent="1" source="21" target="24" edge="1">
          <mxGeometry relative="1" as="geometry">
            <Array as="points" />
          </mxGeometry>
        </mxCell>
        <mxCell id="54" value="Sí" style="curved=1;startArrow=none;endArrow=block;exitX=0;exitY=0.84;entryX=0.5;entryY=0;" parent="1" source="22" target="25" edge="1">
          <mxGeometry relative="1" as="geometry">
            <Array as="points">
              <mxPoint x="1068" y="832" />
            </Array>
          </mxGeometry>
        </mxCell>
        <mxCell id="55" value="No" style="curved=1;startArrow=none;endArrow=block;exitX=1;exitY=0.84;entryX=0.5;entryY=0;" parent="1" source="22" target="26" edge="1">
          <mxGeometry relative="1" as="geometry">
            <Array as="points">
              <mxPoint x="1378" y="832" />
            </Array>
          </mxGeometry>
        </mxCell>
        <mxCell id="56" value="Sí" style="curved=1;startArrow=none;endArrow=block;exitX=0;exitY=0.84;entryX=0.5;entryY=0;" parent="1" source="23" target="27" edge="1">
          <mxGeometry relative="1" as="geometry">
            <Array as="points">
              <mxPoint x="1688" y="832" />
            </Array>
          </mxGeometry>
        </mxCell>
        <mxCell id="57" value="No" style="curved=1;startArrow=none;endArrow=block;exitX=1;exitY=0.84;entryX=0.5;entryY=0;" parent="1" source="23" target="28" edge="1">
          <mxGeometry relative="1" as="geometry">
            <Array as="points">
              <mxPoint x="1998" y="832" />
            </Array>
          </mxGeometry>
        </mxCell>
        <mxCell id="58" value="Sí" style="curved=1;startArrow=none;endArrow=block;exitX=0;exitY=0.84;entryX=0.5;entryY=0;" parent="1" source="24" target="29" edge="1">
          <mxGeometry relative="1" as="geometry">
            <Array as="points">
              <mxPoint x="2306" y="832" />
            </Array>
          </mxGeometry>
        </mxCell>
        <mxCell id="59" value="No" style="curved=1;startArrow=none;endArrow=block;exitX=1;exitY=0.84;entryX=0.5;entryY=0;" parent="1" source="24" target="30" edge="1">
          <mxGeometry relative="1" as="geometry">
            <Array as="points">
              <mxPoint x="2614" y="832" />
            </Array>
          </mxGeometry>
        </mxCell>
        <mxCell id="60" value="" style="curved=1;startArrow=none;endArrow=block;exitX=0.5;exitY=1;entryX=0;entryY=0.36;" parent="1" source="25" target="31" edge="1">
          <mxGeometry relative="1" as="geometry">
            <Array as="points">
              <mxPoint x="1068" y="971" />
            </Array>
          </mxGeometry>
        </mxCell>
        <mxCell id="61" value="" style="curved=1;startArrow=none;endArrow=block;exitX=0.5;exitY=1;entryX=0;entryY=0.27;" parent="1" source="26" target="31" edge="1">
          <mxGeometry relative="1" as="geometry">
            <Array as="points">
              <mxPoint x="1378" y="971" />
            </Array>
          </mxGeometry>
        </mxCell>
        <mxCell id="62" value="" style="curved=1;startArrow=none;endArrow=block;exitX=0.5;exitY=1;entryX=0.14;entryY=0;" parent="1" source="27" target="31" edge="1">
          <mxGeometry relative="1" as="geometry">
            <Array as="points">
              <mxPoint x="1688" y="971" />
            </Array>
          </mxGeometry>
        </mxCell>
        <mxCell id="63" value="" style="curved=1;startArrow=none;endArrow=block;exitX=0.5;exitY=1;entryX=0.86;entryY=0;" parent="1" source="28" target="31" edge="1">
          <mxGeometry relative="1" as="geometry">
            <Array as="points">
              <mxPoint x="1998" y="971" />
            </Array>
          </mxGeometry>
        </mxCell>
        <mxCell id="64" value="" style="curved=1;startArrow=none;endArrow=block;exitX=0.5;exitY=1;entryX=1;entryY=0.27;" parent="1" source="29" target="31" edge="1">
          <mxGeometry relative="1" as="geometry">
            <Array as="points">
              <mxPoint x="2306" y="971" />
            </Array>
          </mxGeometry>
        </mxCell>
        <mxCell id="65" value="" style="curved=1;startArrow=none;endArrow=block;exitX=0.5;exitY=1;entryX=1;entryY=0.36;" parent="1" source="30" target="31" edge="1">
          <mxGeometry relative="1" as="geometry">
            <Array as="points">
              <mxPoint x="2614" y="971" />
            </Array>
          </mxGeometry>
        </mxCell>
      </root>
    </mxGraphModel>
  </diagram>
</mxfile>
